<svg id="Layer_1" data-name="Layer 1" xmlns="http://www.w3.org/2000/svg" xmlns:xlink="http://www.w3.org/1999/xlink" viewBox="0 0 1125.8 235.9"><defs><style>.cls-1{fill:url(#linear-gradient);}.cls-2,.cls-4{fill:#896232;}.cls-2{fill-rule:evenodd;}.cls-3{fill:#b88345;}.cls-5{fill:url(#linear-gradient-2);}</style><linearGradient id="linear-gradient" x1="964.53" y1="-521.31" x2="1196.15" y2="-521.31" gradientTransform="translate(802.26 1200.03) rotate(-90)" gradientUnits="userSpaceOnUse"><stop offset="0" stop-color="#a96636"/><stop offset="1" stop-color="#e5b66b"/></linearGradient><linearGradient id="linear-gradient-2" x1="964.53" y1="-152.35" x2="1196.15" y2="-152.35" gradientTransform="matrix(0, -1, -1, 0, 693.49, 1200.03)" xlink:href="#linear-gradient"/></defs><title>Artboard 1</title><rect class="cls-1" x="-1.49" y="3.88" width="564.88" height="231.63"/><path class="cls-2" d="M32.27,3.88h6.15C24.69,6.18,10.1,9-1.49,10.84V10C7.12,8.78,19.89,6.2,32.27,3.88Zm277,0h5l1,.2c17.55,3.66,37.69,4.79,56.91,7.82,12.44,2,70.95,1.44,73.37,2.4-2.4,0-6.92-.35-8.46.3-43.92.46-83-2.48-116.64-9-2-.39-6.25-1-11.19-1.71Zm138.38,0c-9.91.34-20,.3-29.92,0H366.42c19.27,2.62,51,3.69,68.3,3.51,4.18-1.68,23.7-.07,31.51-1.2,7-1,14.37-1.66,21.65-2.31Zm94.19,0h2.67C532.17,6,519.49,8.17,517,8.59c-4.76.82-14.32.59-17.87,2.11a9.54,9.54,0,0,1-3.29-.3c6.48-.1,27.85-3.58,45.95-6.52Zm21.58,9.45c-3.47.63-6.88,1.29-10.15,1.88C541.16,17.38,528.53,18,516.55,20c-18.85,3.11-39.09,2.76-58.32,4.5-52.1,4.74-134.61-3.12-181.55-12.92-8-1.67-25.83-5-43.14-7.72H222.87c17.72,2.67,38.26,5.73,42.06,6.52,26.2,5.43,69.18,12,98.3,14.12,40.75,3,88.7,2.84,128.4-1.2,7.59-.77,48.5-5.1,71.76-8.66V13.33Zm0,7.57c-19.27,2.6-46.51,5.13-60,7.23-20.56,3.21-42.67,2.44-63.49,3.91-30.27,2.13-95.18-1.18-123.23-6C269.41,17.89,215,8.59,166.63,4.38c-2.19-.19-4.41-.35-6.67-.5h-56A459.53,459.53,0,0,0,50,9.8c-2.31.41-36.56,5.36-51.48,7.47v1.46C55.79,10.42,114.81,1.06,173.68,6.79,211.46,10.47,268.58,19.5,304.43,26c24.1,4.38,52.43,4.46,71.49,7.21,21.92,3.17,114.31-1.53,135.46-4.51,3.79-.53,33-4.42,52-6.82v-1Zm0,5c-20.61,2.58-54,6.85-57.65,7.35-22.86,3.11-47.87,3.18-71,4.81-18.58,1.31-54.39-.33-73.38-1.5-47.18-2.92-92.19-12.65-138.27-19.24L181.21,12.2c-16.37-2.26-32.94-1.52-49.38-2.4C111.69,8.72,55.35,14.06,38.23,17c-4.82.83-27.61,4.43-39.72,5.94v.62C27.37,19.5,56.35,14.92,85.73,12.8c11.93-.86,25.73-.7,37.16-1.5,25.39-1.79,82.33,3.73,104.88,7.81,41,7.43,93,16.09,135.93,18.64,11.46.68,27.45.49,37.62,1.2,29.54,2.08,104-3.46,130.28-7.81,10.13-1.68,21.09-3.22,31.79-4.6v-.65Zm0,5c-24,3.23-48,6.36-72.23,8.63l-40,3c-11.31,1.24-25.17-.24-35.28,1.2-19.59,2.8-109.44-6.95-124.16-9.62-23.75-4.3-48.57-7.39-72.43-11.72C195,18,159.17,17.3,148.76,15.81c-9.48-1.36-26.25,0-36.22,0-31.68.13-93,9.26-114,11.91v2.92c15.29-1.94,50.81-6.76,54.3-7.32,19.78-3.17,42.58-3.06,63-4.51,50.4-3.56,143.83,13.9,192.84,21.35,22.07,3.35,44.53,4.16,66.78,6.61,27.66,3,110.57-2.57,134.05-6l53.89-6.94V30.93Zm0,4.74v1.91c-17.27,2.3-42.53,5.9-46.84,6.48-16.72,2.26-75.56,8-95,8.12-11.89,0-35.64,1.58-46.57,0-16.7-2.41-42.14-2.55-67.72-7.21-20.69-3.77-42.17-6.83-62.56-10.83s-72.3-10.43-93.59-10.82c-13.26-.24-43.05-1.56-56,.3-13.4,1.94-52.06,3.46-78.08,8.12-5.76,1-12.16,2.25-18.55,3V32.81C19.16,30.19,79,21.43,110.19,21.22c9.92-.07,27.35-1.34,36.69,0,12.66,1.82,26.32.73,38.56,2.7,32.94,4.7,66.54,8.76,98.77,15,22.17,4.32,44.88,5.51,68.2,9,13.8,2.08,75.22,2.64,90.77.9,30.41-3.38,60.59-4.52,94.07-9.31,5.74-.83,16.46-2.54,26.14-3.89Zm0,22.34v1.52A117.56,117.56,0,0,0,552.3,63.9c-1.56.75-2.4,2.13-3.77,3l.48,3c1.79,1.86,7.8,3.74,14.38,5.12v2.18c-9.64-1.37-18.81-3.93-24.26-7.3,0-6.63,13.55-9.72,24.26-11.91Zm0,31.17c-14.47-.44-28.41-1.41-42.6-2.73-14.85-1.38-67.26-4.22-67.26-14.13,11.9-7.38,31.23-9.47,48.91-13.22,7.6-1.62,16.44-4.27,24.93-4.82-4.26-1.42-77.18,13.07-84.66,16.24-1.43.61-2.31,1.78-3.76,2.4a2.74,2.74,0,0,0,.47,2.11c6.91,8.73,84.64,13.62,124,15v-.81Zm0,6.56V97c-48.61-.25-102.38-2.31-148.9-6.29-27.6-2.36-89.93-2.79-120.4-.3-13.46,1.09-59,1.23-75.72,2.4-12.38.87-154.93,4.4-169.32,3.91-16.49-.56-34.2.08-50.54.26V95.77c43.6,0,149.49-.16,182.23-2.71,12.4-1,52.89-1.27,69.14-2.4,25.84-1.8,123.4-7.17,146.27-3.91,16.41,2.34,93.59,6,116.17,7.52,16.62,1.15,33.87,1.4,51.07,1.47Zm0,8.53v2.86c-25.87.66-57.92,2.36-78.35,1-9.9-.67-63.18-.66-80-2.1-57.17-4.91-198.1-3-259.61-2.41-11,.11-111.47,1.07-119,2.11-8,1.11-18.65.72-28,.91v-2.55C85,102.27,170.9,99.93,257.4,99.68c59.81-.18,120.1-.51,179.67,3.6,37.52,2.6,86.81,1.36,126.32,1Zm0,5.92c-10.75.29-22.87.76-29,1.21-26.36,1.93-117-.14-145.81-2.1s-84-1.4-107.7-3.31c-7.85-1.09-17.66.7-24.93-.3-28.7-2-214.3,2.6-257.48,3.73v4.41l53.36-2.13c28.95-.58,160.74-3.43,184.37-1.5,25.29,2.06,88.78,1.48,122.75,4.21,10.15.81,79.84,2.16,83.72,2.7,16.8,2.33,84-1,120.68-2.45v-4.47Zm0,10.6v1.38c-16.58.9-40.12,2.24-41.66,2.46-20.27,2.8-91,2.26-119,1.2-8.91-.34-117.07-5.76-123.22-6.61-14.31-2-176.24-3.58-189.07-1.81-5.64.78-46.08,1.13-55,1.51l-36.9,2v-1.48l39.72-2c32.08-1.24,154.44-3.7,176.84-1.8,23.77,2,104,2.64,137.81,5.41,20,1.64,107,5.48,122.75,3.31,5.64-.78,50.26-1.42,58.8-1.81l29-1.73Zm0,8C503,133.26,443.81,137.29,383,133c-56.56-3.94-113.88-9.12-170.73-10.22-55.18-1.06-112-1.31-167,1.21l-46.77,2.88v2.6l28.43-2.18c9-1.28,18.68-.29,27.28-1.5,19.4-1.55,41.89-.79,62.08-1.5,38.77-1.37,142.87,1.62,179.2,5.11,42.89,4.11,96.86,8.42,140.16,8.41,44,0,84.54-3,127.73-6.49v-2.54Zm0,7.28v.72c-20.23,1.89-52.57,5.1-57.18,5.54-37.74,3.65-102.21,3-139.22-.6-43.91-4.26-87.58-7.71-131.69-10.82-10.85-.76-48.32-2.08-58.32-2.11v-.3c19,0,97.24,2.83,114.76,5.41,20.38,3,43.21,2.61,63.49,5.72,18,2.76,90,4.69,107.71,3.3l17.4-.3c27.82-1.13,55.48-3.87,83.05-6.56Zm0,7.06v2.34c-24,2.54-67.59,7.22-83.05,8-64.15,3.19-131.83-2.34-194.72-10.52-55.45-7.21-177.52-10.51-230.46-5.41l-56.65,5.37V141c14.83-1.3,48-4.82,58.06-5.53,31.91-2.24,100.05-3.45,127.93-1.51,15.6,1.09,42.85.89,57.38,3,23.93,3.5,48.38,3.7,72,6.31,20.77,3.2,44.05,3.24,65.38,6.32,15.71,2.26,87.81,3.17,101.59,1.2,10.56-1.51,22.16-.8,32.92-2.41l49.66-5.21Zm0,15.75v1.43c-18.93,2.63-46,4.92-60.48,6.07-5,.4-30.94.68-32.92,1.5H458.23v-.3h.47c3.81-.66,66.44-1.86,94.54-7.21,1.26-.24,5.46-.88,10.15-1.49Zm0,12c-27.91,4.4-63.15,3.44-91.05,6.05-17.46,1.64-85.6,0-105.82-1.5-49.66-3.61-99.08-7.32-148.15-13.53-34.34-4.34-93.81-4.46-128.87-2.7-30.53,1.53-60.84,5.45-91,8.85v2c19.43-1.87,72.92-7.79,91.92-8.75,10.6-.54,28.79.34,37.63-.9,15.18-2.14,82.18,2,96.42,4.21,25.62,3.89,86.75,8.13,117.11,10.82,46.36,4.11,137.46,4.57,179.2.6,1.78-.17,25.81-2.29,42.6-3.74v-1.41Zm0,3.43c-20.28,1.72-52.16,3.46-63.77,4.43-19.69,1.63-75,1.57-95.94,1.2-53.5-1-134.53-7.55-185.32-13.83-33.93-4.19-92.83-4.47-128.4-2.71-19.39,1-72,6.71-91.45,8.5v1.37L63.63,167c14.38-1.75,39.85-1.64,50.79-2.4,33.35-2.31,74.42,1,107.24,3.6,27,2.18,55,5,81.83,7.52,51.64,4.85,119.63,6.58,172.14,5.11,29.45-.83,58.55-2.9,87.76-5.45v-1.08Zm0,2.12L531.13,179c-11.22.45-23,.83-34.33,1.8-15.87,1.37-107.77,2.09-120.41.3-1-.15-75.43-4.62-86.54-5.71-30.38-3-79.91-5.52-107.23-8.42-10.43-1.1-21-.5-31-1.2C115.85,163.31,36.16,171-1.49,174.5v6.2c20.6-1.35,80.95-5.41,86.75-5.87,21.08-1.68,99.38-1,123.7,1.5l110.53,7.52,53.61,2.4c15.94,1.47,114.22,1,132.64-.6,2.94-.25,36.77-2.25,57.65-3.4v-5.82Zm0,8.16v4.79c-42.56,1.78-130.3,4.88-151.72,3.48-7.56-1-17.72.84-25.87-.3C364.08,190.75,280,190,248.47,187.45c-27-2.19-121.87-5.46-148.63-3.3l-37.15.9-64.18,3.26v-5c13.5-.72,36.23-2.88,46.77-3.68,73.59-5.61,85.29-3.09,213.71,3.17,16.16.79,34.17,1.64,54.38,2.54,24.95,3.52,150.59,4.58,171.67,3,2.55-.2,52-2.54,78.35-3.77Zm0,7v3.25c-56.16,1.58-168.73,4.23-206.75,1.63-15-1-53.82.46-65.84-1.2-6.57-.91-161.13-5.49-172.61-3.91-4.3.59-48.66.41-57.38.6l-62.3,2.17V191c20.72-.37,47.46-2.66,67.47-3,18.85-.27,113.53-1.69,125.58,0,10.74,1.52,103.25,3.29,123.22,4.81,14.23,1.09,124.93,2.35,136.4,1.51,20.36-1.5,54,.3,75.72-1.21,3.7-.25,22.25-1,36.49-1.57Zm0,7.28c-49.12.89-99,1.81-150.31,1.81-16.86,0-101.66-.19-113.82-.9-20.46-1.2-108.84-1.7-116.17-2.71-13.55-1.87-150,1-184.58,1.44v3.61c37.55-.35,218-1.89,234.44.36,9.51,1.31,95.18-.09,114.28,1.21,21.84,1.48,161.34-.9,216.16-1.41v-3.41Zm0,6.07v1.25c-46.86.35-182.61,1.46-274.54,1.67-45.8.11-80.72,0-88.36-.57-6.25-.45-64.79-.76-75.25-.9-43.84-.56-84.77-.33-126.73-.3v-1.24c26.21-.25,95.85-1.66,107-.86,13.47,1,109.44,1.81,181.7,2.09,54.92.21,109.11,0,164,0,38.2,0,75.85-.91,112.21-1.15Zm0,7.8v2.36c-58.62,0-256,.2-272.13,2.41-12.95,1.79-172.46-.28-180.6-.9-22.35-1.68-84.43-1.53-112.15-1.5v-2.46c15.62-.19,33.76-.81,46.3.35,1.14.11,113.63,1.1,119,1.51,4.16.32,91.56,1.63,98.77.6,10.55-1.51,237.71-2.21,300.81-2.37Zm0,10.43v3.15c-22.88-.31-61.31-.75-66.12-.09-5.47.76-102.52.24-113.82,1.81-8.21,1.13-176.6,6.52-199.89,3.3C180,230.85,29.48,227,13.3,226.83l-14.79-.2v-3.35c38.06.42,164.26,3.14,177.06,4.15,30.54,2.42,142.3.46,162.73-1.2,18.49-1.49,64.44-1.33,75.72-2.1,25.28-1.72,109.22-1.16,149.37-1Zm0,10.09c-10.91.1-23.34.15-27.55-.42-12.55-1.68-117.31,1-131.69,2.11-2.08.16-5.6.35-10.14.55H563.39v-2.24ZM80.29,235.5c-27.84-1.18-62.71-2.16-81.78-2.33v2.33ZM-1.49,157c9-1.56,22.75-3.47,28-3.48l-.47-.6c-8.93.52-18.38,2.74-27.49,3.58v.5Zm0-21.92c28.25-1.9,56.79-6.12,87.69-5.9-6.31-2.44-63.73,3.3-87.69,5v.9Zm0-44.61,21.85.23c-1.49-.59-13.58-.8-21.85-.87v.64Zm0-11.48V77.88c12.63,1,37.28,3.4,37.37,3.46-12.29,0-24.79-1.62-37.37-2.39Zm0-7.7V60.1a105.17,105.17,0,0,1,13.38-4.61c8.19-2.23,16.48-3,25.4-4.81,90.7-18.86,197.07,3.44,171.2,15.93C188.85,76.08,140.79,77,114.89,78,81.31,78,30.5,79.18-.81,71.42l-.68-.17ZM319.57,3.88a126.88,126.88,0,0,0,14.5,2.31c13,1.11,54.4,7.27,67.25,6.31,6.56-.49,1.89.52,5.65.6l7-.6a101.12,101.12,0,0,0,15.05.9c.46-.18,14.67-1,15.05-.9,4.39.84,2.5-.07,5.65-.3l6.11.3c17.06-.83,46.84-3.46,62.55-5.71,3.56-.51,9.81-1.71,16.19-2.91H498.21C488,5.33,476.57,6.79,463.88,7.69c-32.3,2.31-76.79.77-110.58-3.81ZM493.51,11.3a5.68,5.68,0,0,1,2.35-.3c-1.6-.67-4.06-.1-6.11,0a11.11,11.11,0,0,0,3.76.3Zm-6.12.6a11.16,11.16,0,0,1-3.76-.3c1.71-.16,4.58-.65,6.12,0a5.74,5.74,0,0,0-2.36.3Zm-8.46.6a9.13,9.13,0,0,1-3.3-.3,9.34,9.34,0,0,1,3.3.3Zm-6.59.6c-1.72,0-4.17.13-5.17-.3,2.46-.07,5.7-.76,7.52,0a5.89,5.89,0,0,0-2.35.3Zm-5.17.3a7.46,7.46,0,0,1-2.82-.3,7.46,7.46,0,0,1,2.82.3Zm-17.87.9a11.77,11.77,0,0,1-2.83-.3v-.3c3.32,0,15.38-1.15,17.41-.3l-14.58.9ZM135.59,28.43c-3.68,0-15.69.59-17.88-.3,3.68,0,15.69-.59,17.88.3ZM98,29a3.1,3.1,0,0,1-1.41-.3A3.4,3.4,0,0,1,98,29Zm63.5.61h-1v-.31c.83.19.46.06,1,.31ZM176,30.84h-.94v-.3c.82.19.45.06.94.3Zm8.93.9H184v-.3c.83.19.46.06.94.3Zm3.29.3a5.89,5.89,0,0,1-2.35-.3,5.86,5.86,0,0,1,2.35.3Zm7.53.9a4.43,4.43,0,0,1-1.88-.3,4.47,4.47,0,0,1,1.88.3Zm1.88.3a4.47,4.47,0,0,1-1.88-.3,4.47,4.47,0,0,1,1.88.3Zm8.94,1.2c-2.74,0-7.13-.36-8.94-1.2,2.85,0,7.15.35,8.94,1.2Zm355.57,9.32a4.22,4.22,0,0,1-1.89-.3,4.52,4.52,0,0,1,1.89.3Zm-383.32.3h-.94v-.3c.82.19.45.06.94.3Zm381.43,0a3.14,3.14,0,0,1-1.41-.3,3.35,3.35,0,0,1,1.41.3Zm-379.08.31a4.25,4.25,0,0,1-1.88-.31,4.28,4.28,0,0,1,1.88.31Zm56.91.9h-.94V45c.82.19.45.05.94.3Zm1.41.3h-.94v-.3c.82.19.46,0,.94.3Zm310.89,0a5.86,5.86,0,0,1-2.35-.3c2.18-.15,4.44-1,6.11-.3a12.54,12.54,0,0,0-3.76.6ZM14.71,50.38c-.48-.24-.11-.11-.94-.3v.3Zm-.94.3a3.06,3.06,0,0,0-1.41-.3,3.28,3.28,0,0,0,1.41.3Zm-1.88.3a3.1,3.1,0,0,0-1.41-.3,3.1,3.1,0,0,0,1.41.3Zm-4.23.9a6.54,6.54,0,0,1,2.82-.6c-1.45-.54-2.86.11-4.7.3a4.43,4.43,0,0,0,1.88.3Zm-1.88.3a3.14,3.14,0,0,0-1.41-.3,3.06,3.06,0,0,0,1.41.3ZM.13,53.38a11.52,11.52,0,0,1,4.24-.9,6.09,6.09,0,0,0-4.71.6h-.94a3.14,3.14,0,0,0,1.41.3Zm531.94,0c-.48-.24-.11-.11-.94-.3v.3Zm-3.29.6a3.35,3.35,0,0,0-1.41-.3,3.1,3.1,0,0,0,1.41.3ZM113.48,63.3c2.86-1.14,9.56-1.15,12.7-2.1.16-.5.31-1,.47-1.5a17.49,17.49,0,0,1-3.76-1.81c-6.87-.1-35.72-2.08-36.69,3.61,6.84,2,17.11,1.8,27.28,1.8Zm288.78.3c-60.51.84-99-10.42-143.45-19.84-5.3-1.12-50.94-8.73-52.2-9.32,18.08.13,118.46,23.24,153.79,25.86,22.24,1.64,65.27,1.32,87.48-2.11,30.42-4.7,61.58-6.55,91.25-11.72,2.45-.43,7-1.31,8.94-.6-5.33.16-36.14,5.14-40.92,6-30.51,5.57-62.87,7.43-94.07,11.12-3.45.51-8.18-.46-10.82.6ZM112.54,68.11C3.91,69.55,86,44.67,137.47,54.59c46.29,8.91-24.25,13.25-24.93,13.52Zm0,4.51c-28.92-.08-69.89,1-83.25-8.72,3.38-16.31,138-21.75,149.1-4.2,6.7,10.57-64.18,12.3-65.85,12.92Zm-8.94,2.11c-27.85.23-73-.42-87.48-9.32.84-14.82,101.2-23,140.63-15.93,7.87,1.41,41.51,6.05,32.45,14.12-7.12,6.36-41.28,8.86-53.14,9.92L103.6,74.73Zm12.23,1.2C93.42,75.94,12.4,77.68,6.72,65.11a6.34,6.34,0,0,1-.47-2.71s6.19-2.48,7.05-2.7c5.27-1.38-.94-1.74,29.16-7.52,29.72-5.71,76.87-10.13,112.41-4.51,15.1,2.39,43.21,4.2,43.27,15.33-7.69,12.34-78.67,11.56-82.31,12.93Zm64,3a13,13,0,0,1-4.23-.31c9,.05,53.53-5.52,58.32-13.52-.21-10.55-26.49-15.29-39.51-18.34-3.95-.93-9.61-.86-12.7-2.41,12.74.4,53.69,10.45,58.79,17.74,1,11.45-30.06,13.14-45.62,15.63-3.65.59-12.35.12-15,1.21Zm-4.23.29a11.47,11.47,0,0,0-3.77-.3,10.94,10.94,0,0,0,3.77.3Zm-15.06,1.21c1.36-.59,5.06-.62,7.06-.6-2.07-1-6.58,0-8.94,0v.6Zm-7,.3a13.29,13.29,0,0,1-4.23-.3,29,29,0,0,0,4.23-.3v.6Zm-104.41.9c-3.52.07-9,.36-11.29-.6,3.45-.06,9-.35,11.29.6Zm155.68,5.71c-1.83.05-4.57.16-5.65-.3,15.62.18,117.43-7.52,109.12-18-8.57-10.84-63.44-20.73-68.67-23.44,4.31,0,80.64,16.93,81.84,26.45-10.36,6.58-8.9,4.34-27.28,7.52-16.56,2.86-35.8,3.14-53.62,5.71-5.84.84-33,1-35.74,2.1Zm-8,.3a7.46,7.46,0,0,0-2.82-.3,7.46,7.46,0,0,0,2.82.3Zm-7,.3a4.52,4.52,0,0,0-1.89-.3,4.52,4.52,0,0,0,1.89.3Zm-84.19,40.58c-1.92.05-5,.2-6.12-.3,1.92,0,5-.19,6.12.3Zm41.85,0c1.08-.46,3.83-.34,5.65-.3-3.14-1.26-27-.3-31.51-.3,3.53,1.43,21.7.46,25.86.6Zm23.52,0c-3.1.05-9.64.58-11.76-.3,3.1,0,9.65-.57,11.76.3Zm4.71,0a5.74,5.74,0,0,1-2.36-.3,6.1,6.1,0,0,1,2.36.3Zm-81.84.3c-1.82,0-4.57.17-5.65-.3,1.83,0,4.57-.16,5.65.3Zm88.42,19.85a3.17,3.17,0,0,1,1.41-.31v-.6c-8.15-.38-73-3.06-78.54-.3a93.7,93.7,0,0,0,15-.3c20.26-1.38,42.22,1,62.08,1.51Zm-58.32,3c-1.63-.68-6.44-.35-8.94-.3,1.63.68,6.44.35,8.94.3Zm-23,.6c1.55-.65,6.07-.35,8.47-.3-2.44-1-9.07-.15-11.76,0a9.07,9.07,0,0,0,3.29.3Zm-9.87.3a4.52,4.52,0,0,0-1.89-.3,4.36,4.36,0,0,0,1.89.3Zm-59.74.6c4.45-1.94,65.46-5.48,71.49-5.41v-.6c-13.91-.71-64.29,3.52-74.78,5.71h-.47v.3Zm51.74,0c-1-1.1-2.22-.3-3.76-.3v.3ZM66,154.39a4.14,4.14,0,0,1,1.88-.3c-1.29-.52-2.78-.09-4.7,0a7.46,7.46,0,0,0,2.82.3Zm-17.4,1.5a4.5,4.5,0,0,0-1.88-.3,4.43,4.43,0,0,0,1.88.3Zm-13.64,1.5a28.84,28.84,0,0,1,7.05-.9c-1.94-.74-7.21.38-9.88.6a7.52,7.52,0,0,0,2.83.3Zm-6.12.6h-.94v-.3c.83.19.46.06.94.3Zm-6.58.91a6,6,0,0,1-2.35-.3,5.71,5.71,0,0,1,2.35.3Zm-4.23.6h-1v-.6h2.83v.3a4.28,4.28,0,0,0-1.88.3Zm-7.53.9a3.06,3.06,0,0,1-1.41-.3c.92,0,1-.22,2.35-.3v.3c-.83.19-.46.06-.94.3ZM.13,161.6a3.14,3.14,0,0,1-1.41-.3,3.06,3.06,0,0,1,1.41.3Zm363.1,3.61c-1.68-2-36.17-3.32-41.39-4.21-10.08-1.71-133.92-15.59-137.81-12.63,6.55.84,13.74.2,20.7,1.21,1.73.25,56.41,5.58,60.67,6,14.76,1.48,30.58,3.45,45.15,5.11,6.15.7,49.1,4.53,52.68,4.51Zm23,1.5c-7.21-.45-15.86-.13-22.1-1.5v-.3c4.54,0,20.39.13,22.1,1.8Zm28.22,1.2c-6.33,0-18.63,0-24-1.2v-.3c4.78,0,22.5.16,24.92,1.2-.82.19-.45.06-.94.3Zm7.06,0a13.09,13.09,0,0,1-4.24-.3,13.36,13.36,0,0,1,4.24.3Zm14.11.61c-2.52-.06-7.73-.11-9.41-.91,4.49,0,28.09-1,31,.3-3.78.24-19.1-.42-21.63.61Zm-309,9.61-1.41-.3v-.3h1.41v.6Zm-25.4.31H98v-.31a23.2,23.2,0,0,1,3.29-.3v.61Zm-8.93.3H89c.44-.65.41-.44.94-.91l3.3.3v.31c-.81.19-.46.05-.94.3Zm-9.41.3H81.5c.81-.27.6-.27,1.41,0Zm-28.69,1.2H52.81c.81-.27.6-.27,1.41,0Zm-10.82.6H42C42.8,180.57,42.59,180.58,43.4,180.84Z"/><path class="cls-3" d="M564.86,16.9s-75.94,3.89-92.16,3.89-38.53-1.95-62.87-1.95-61.51-1.94-85.18-1.94-63.54-2.43-91.25.48-54.76,5.35-81.8,1.95-48.67-3.89-70.3-3.89-54.08.48-64.9.48H-.27V6l565.13.64Z"/><path class="cls-4" d="M50.49,7.05c6.22-.17,14.41,1,26.22.91L75.94,7c9.54,1,45,1.55,53.93,3.7,9-.72-1-.2-.75-.93,17.49-1,18.71.49,27.87,1,10.78-.47-8.23-.36-2.44-1.06,16.5.71,13.39-1.14,33.78-.53,2,.53-5.27.37-7.37.71C195.3,9,222,9.59,243.35,9.4c24.39.66,60.42.92,88.94,1.76l.53-.34c11.85.87,24.69.06,38.55.45l-6.77-.5c9-.58,14.13-.21,22.69-.46l4.78,1c9.27-.32,4.09-.82,10.82-1.33,8.46.62,26.28.05,30.3.09,2.78.45-3.47.62-4.82.9,10.86-.33,10.1-1.26,23.6-1.27l.22.26c32.26-1.38,73.15-1,109-1.9a5.77,5.77,0,0,1-2.76-.45l6.4,0v-5c-12.11.33-33.47-.31-46.73.1-6.22.07-14.4-.47-26.22-.41l.77.41c-9.53-.42-45-.69-53.92-1.65-9,.32.94.08.74.41-17.49.44-18.7-.22-27.87-.46-10.77.2,8.24.16,2.45.47-16.5-.32-13.4.51-33.78.24-2-.24,5.26-.17,7.36-.32-14.32.42-41,.17-62.3.25,5-.18,9.52-.32,12.14-.51l-18.76.38C319.88.89,306.05.5,316,0c-18.69-.5-41.28.1-59.21.54,2.22.16,5,.27,5.31.52L253.73,1c-.76-.18-1-.39-1.85-.56a34.49,34.49,0,0,0-4.57.49l-11-.13-.53.15C224.53.55,212.33.86,199.24.74h-2l1.44.05c1.17.08,2.35.15,3.1.23-3.3.08-6.1.1-8.82.11a43.91,43.91,0,0,0-7.49-.18l6.31-1c-6.34,0-15.63.36-12.36-.53C168.36.43,148.94,0,135.11.62l.92-.8c-7.15,1-26.28-.05-32.49,1.12L102.49.61,88.38,1.68H88c-6.13-.13-4-1.3-4.54-1C69.34.93,58.25,1,49.16.58c-2,1-13.61,1.28-24.41,1.45l-6.12,0Q9.24,2-.27,1.92V7.64C10.46,6.14,35.59,8.08,50.49,7.05Z"/><path class="cls-3" d="M564.86,211.45H524.07c-13.52,0-36.5-4.37-48.67-4.37S438.9,210,438.9,210s-12.17.48-22.31.48-16.22-1-23-1-35.83,1.94-42.59,1.94H194.86c-13.52,0-15.55-1.45-34.47-1.45S130,213.4,109,211s-42.59-2.43-62.19.48-47.09,0-47.09,0v8.27l563.57,1.22Z"/><path class="cls-4" d="M50.49,225.28c6.22-.2,14.41,1.22,26.22,1.07l-.77-1.09c9.54,1.11,45,1.8,53.93,4.31,9-.84-1-.23-.75-1.09,17.49-1.12,18.71.58,27.87,1.22,10.78-.54-8.23-.41-2.44-1.23,16.5.82,13.39-1.34,33.78-.62,2,.61-5.27.43-7.37.83,14.34-1.11,41.06-.43,62.39-.65,24.39.76,60.42,1.07,88.94,2l.53-.39c11.85,1,24.69.07,38.55.52l-6.77-.58c9-.68,14.13-.25,22.69-.54l4.78,1.13c9.27-.37,4.09-1,10.82-1.55,8.46.72,26.28.06,30.3.11,2.78.53-3.47.72-4.82,1,10.86-.38,10.1-1.46,23.6-1.48l.22.31c32.26-1.61,73.15-1.19,109-2.21a5.1,5.1,0,0,1-2.76-.53l6.4-.06V220c-12.11.38-33.47-.37-46.73.11-6.22.09-14.4-.55-26.22-.48l.77.49c-9.53-.5-45-.81-53.92-1.94-9,.38.94.11.74.49-17.49.51-18.7-.26-27.87-.54-10.77.24,8.24.18,2.45.55-16.5-.37-13.4.6-33.78.28-2-.28,5.26-.2,7.36-.38-14.32.5-41,.2-62.3.3,5-.21,9.52-.38,12.14-.59l-18.76.43c1.14-.63-12.69-1.08-2.79-1.69-18.69-.57-41.28.12-59.21.63,2.22.19,5,.32,5.31.61l-8.32-.09c-.76-.2-1-.45-1.85-.64a29,29,0,0,0-4.57.57l-11-.15-.53.17c-11.28-.43-23.48-.07-36.57-.21l-1.2,0h-.79l1.44.06c1.17.09,2.35.17,3.1.27-3.3.09-6.1.11-8.82.12a37.68,37.68,0,0,0-7.49-.21l6.31-1.21c-6.34,0-15.63.42-12.36-.61-11.07,1.24-30.49.75-44.32,1.46l.92-.94c-7.15,1.14-26.28-.05-32.49,1.31l-1.05-.38L88.38,219H88c-6.13-.14-4-1.51-4.54-1.12-14.14.25-25.23.32-34.32-.16-2,1.1-13.61,1.49-24.41,1.68l-6.12.05q-9.39-.12-18.9-.17V226C10.46,224.22,35.59,226.48,50.49,225.28Z"/><path class="cls-4" d="M336.82,195.4S317.89,192,303,192s-50,6.32-50,6.32,35.83-2.92,54.08-2.92S346.66,196.91,336.82,195.4Z"/><rect class="cls-5" x="563.4" y="3.88" width="564.88" height="231.63"/><path class="cls-2" d="M1094.52,3.88c12.38,2.32,25.15,4.9,33.76,6.12v.84c-11.59-1.89-26.17-4.66-39.91-7Zm-277,0c-4.93.71-9.21,1.32-11.18,1.71-33.63,6.53-72.73,9.47-116.64,9-1.55-.65-6.07-.34-8.47-.3,2.42-1,60.94-.44,73.37-2.4,19.22-3,39.36-4.16,56.91-7.82l1-.2Zm-138.37,0H638.91c7.28.65,14.61,1.28,21.65,2.31,7.81,1.13,27.33-.48,31.52,1.2,17.25.18,49-.89,68.3-3.51H709.1c-9.9.3-20,.34-29.92,0Zm-94.2,0c18.1,2.94,39.47,6.42,45.95,6.52a9.52,9.52,0,0,1-3.29.3c-3.54-1.52-13.1-1.29-17.87-2.11C607.3,8.17,594.62,6,582.31,3.88ZM563.4,13.33v1.33c23.26,3.56,64.18,7.89,71.77,8.66,39.69,4,87.65,4.18,128.4,1.2,29.11-2.12,72.1-8.69,98.3-14.12,3.79-.79,24.33-3.85,42-6.52H893.26c-17.32,2.73-35.18,6.05-43.15,7.72-46.94,9.8-129.45,17.66-181.55,12.92-19.22-1.74-39.47-1.39-58.32-4.5-12-2-24.61-2.64-36.68-4.81-3.28-.59-6.69-1.25-10.16-1.88Zm0,7.57v1c19,2.4,48.22,6.29,52,6.82,21.16,3,113.55,7.68,135.46,4.51,19.06-2.75,47.4-2.83,71.49-7.21,35.85-6.53,93-15.56,130.75-19.24C1012,1.06,1071,10.42,1128.28,18.73V17.27c-14.92-2.11-49.16-7.06-51.47-7.47a459.72,459.72,0,0,0-53.94-5.92h-56c-2.26.15-4.49.31-6.67.5C911.75,8.59,857.38,17.89,810.13,26c-28,4.83-93,8.14-123.23,6-20.81-1.47-42.92-.7-63.49-3.91-13.5-2.1-40.73-4.63-60-7.23Zm0,5v.65c10.71,1.38,21.66,2.92,31.79,4.6C621.52,35.49,695.93,41,725.47,39c10.17-.71,26.16-.52,37.63-1.2C806,35.2,858,26.54,899,19.11c22.55-4.08,79.49-9.6,104.88-7.81,11.44.8,25.23.64,37.16,1.5,29.38,2.12,58.36,6.7,87.22,10.77V23c-12.11-1.51-34.9-5.11-39.71-5.94-17.12-3-73.46-8.29-93.6-7.21-16.44.88-33,.14-49.39,2.4l-41.86,5.11c-46.08,6.59-91.09,16.32-138.27,19.24-19,1.17-54.79,2.81-73.37,1.5-23.16-1.63-48.17-1.7-71-4.81-3.7-.5-37-4.77-57.66-7.35Zm0,5v2.89l53.89,6.94c23.49,3.44,106.4,9.05,134.05,6,22.26-2.45,44.71-3.26,66.79-6.61,49-7.45,142.44-24.91,192.83-21.35,20.45,1.45,43.25,1.34,63,4.51,3.49.56,39,5.38,54.3,7.32V27.72c-21.06-2.65-82.35-11.78-114-11.91-10,0-26.73-1.36-36.21,0-10.42,1.49-46.26,2.21-70.55,6.61-23.87,4.33-48.69,7.42-72.43,11.72-14.72,2.67-104.58,12.42-124.17,9.62-10.1-1.44-24,0-35.28-1.2l-40-3c-24.23-2.27-48.27-5.4-72.24-8.63Zm0,4.74c9.68,1.35,20.4,3.06,26.15,3.89,33.47,4.79,63.65,5.93,94.06,9.31,15.56,1.74,77,1.18,90.77-.9,23.33-3.51,46-4.7,68.2-9,32.23-6.27,65.83-10.33,98.77-15,12.24-2,25.91-.88,38.57-2.7,9.33-1.34,26.76-.07,36.68,0,31.22.21,91,9,111.68,11.59v1.94c-6.39-.76-12.78-2-18.55-3-26-4.66-64.68-6.18-78.07-8.12-12.93-1.86-42.72-.54-56-.3-21.29.39-73.24,6.83-93.6,10.82S840.22,41.2,819.54,45c-25.58,4.66-51,4.8-67.73,7.21-10.92,1.58-34.68,0-46.56,0-19.44-.08-78.29-5.86-95-8.12-4.31-.58-29.56-4.18-46.84-6.48V35.67Zm0,22.34c10.72,2.19,24.26,5.28,24.26,11.91-5.44,3.37-14.62,5.93-24.26,7.3V75c6.59-1.38,12.6-3.26,14.39-5.12.15-1,.31-2,.47-3-1.37-.88-2.21-2.26-3.77-3a117.56,117.56,0,0,0-11.09-4.37V58Zm0,31.17V90c39.34-1.34,117.07-6.23,124-15,.5-.47.49-1.23.47-2.11-1.45-.62-2.32-1.79-3.76-2.4-7.48-3.17-80.4-17.66-84.66-16.24,8.49.55,17.33,3.2,24.93,4.82,17.68,3.75,37,5.84,48.91,13.22,0,9.91-52.41,12.75-67.25,14.13-14.2,1.32-28.13,2.29-42.61,2.73Zm0,6.56c17.21-.07,34.46-.32,51.07-1.47,22.58-1.57,99.76-5.18,116.17-7.52,22.88-3.26,120.43,2.11,146.28,3.91,16.24,1.13,56.73,1.44,69.14,2.4,32.73,2.55,138.62,2.7,182.22,2.71v1.16c-16.34-.18-34-.82-50.53-.26-14.39.49-156.94-3-169.32-3.91-16.74-1.17-62.27-1.31-75.72-2.4-30.48-2.49-92.8-2.06-120.41.3-46.52,4-100.29,6-148.9,6.29V95.74Zm0,8.53c39.51.37,88.8,1.61,126.33-1,59.57-4.11,119.86-3.78,179.66-3.6,86.5.25,172.4,2.59,258.89,4.37v2.55c-9.3-.19-19.93.2-28-.91-7.52-1-108-2-119-2.11-61.51-.58-202.44-2.5-259.62,2.41-16.78,1.44-70.05,1.43-80,2.1-20.43,1.4-52.47-.3-78.35-1v-2.86Zm0,5.92v4.47c36.68,1.45,103.89,4.78,120.68,2.45,3.88-.54,73.57-1.89,83.72-2.7,34-2.73,97.46-2.15,122.76-4.21,23.62-1.93,155.41.92,184.36,1.5l53.36,2.13v-4.41c-43.17-1.13-228.78-5.69-257.48-3.73-7.26,1-17.07-.79-24.93.3-23.66,1.91-78.77,1.33-107.7,3.31s-119.45,4-145.8,2.1c-6.1-.45-18.22-.92-29-1.21Zm0,10.6,29,1.73c8.53.39,53.15,1,58.79,1.81,15.73,2.17,102.72-1.67,122.75-3.31,33.85-2.77,114.05-3.4,137.81-5.41,22.4-1.9,144.77.56,176.85,1.8l39.71,2v1.48l-36.89-2c-9-.38-49.39-.73-55-1.51-12.84-1.77-174.77-.18-189.07,1.81-6.16.85-114.32,6.27-123.23,6.61-28,1.06-98.73,1.6-119-1.2-1.55-.22-25.09-1.56-41.67-2.46v-1.38Zm0,8v2.54c43.2,3.51,83.71,6.49,127.74,6.49,43.29,0,97.26-4.3,140.15-8.41,36.33-3.49,140.44-6.48,179.2-5.11,20.2.71,42.68,0,62.08,1.5,8.61,1.21,18.24.22,27.28,1.5l28.43,2.18v-2.6L1081.51,124c-55-2.52-111.79-2.27-167-1.21-56.85,1.1-114.16,6.28-170.73,10.22-60.83,4.25-120,.22-180.41-4.22Zm0,7.28c27.58,2.69,55.24,5.43,83.06,6.56l17.4.3c17.75,1.39,89.65-.54,107.7-3.3,20.28-3.11,43.11-2.71,63.5-5.72,17.51-2.58,95.74-5.41,114.76-5.41v.3c-10,0-47.48,1.35-58.32,2.11-44.12,3.11-87.78,6.56-131.7,10.82-37,3.6-101.47,4.25-139.21.6-4.61-.44-37-3.65-57.19-5.54v-.72Zm0,7.06,49.66,5.21c10.76,1.61,22.37.9,32.92,2.41,13.78,2,85.89,1.06,101.6-1.2,21.33-3.08,44.6-3.12,65.37-6.32,23.59-2.61,48-2.81,72-6.31,14.53-2.12,41.78-1.92,57.38-3,27.88-1.94,96-.73,127.93,1.51,10.12.71,43.23,4.23,58.06,5.53v1.94l-56.65-5.37c-52.94-5.1-175-1.8-230.46,5.41-62.89,8.18-130.57,13.71-194.71,10.52-15.47-.76-59.09-5.44-83.06-8v-2.34Zm0,15.75c4.7.61,8.89,1.25,10.15,1.49,28.11,5.35,90.74,6.55,94.54,7.21h.47v.3H656.8c-2-.82-27.9-1.1-32.92-1.5-14.51-1.15-41.55-3.44-60.48-6.07v-1.43Zm0,12v1.41c16.79,1.45,40.82,3.57,42.61,3.74,41.73,4,132.83,3.51,179.19-.6,30.36-2.69,91.49-6.93,117.11-10.82,14.25-2.17,81.24-6.35,96.42-4.21,8.85,1.24,27,.36,37.63.9,19,1,72.5,6.88,91.92,8.75v-2c-30.15-3.4-60.45-7.32-91-8.85-35.06-1.76-94.53-1.64-128.87,2.7-49.08,6.21-98.49,9.92-148.16,13.53-20.22,1.47-88.35,3.14-105.82,1.5-27.9-2.61-63.14-1.65-91.05-6.05Zm0,3.43v1.08c29.22,2.55,58.31,4.62,87.76,5.45,52.52,1.47,120.51-.26,172.14-5.11,26.81-2.52,54.8-5.34,81.84-7.52,32.82-2.64,73.88-5.91,107.23-3.6,10.94.76,36.42.65,50.8,2.4l65.11,6.26V171.9c-19.4-1.79-72.06-7.53-91.45-8.5-35.56-1.76-94.46-1.48-128.4,2.71-50.78,6.28-131.82,12.87-185.31,13.83-20.94.37-76.26.43-96-1.2-11.6-1-43.49-2.71-63.77-4.43Zm0,2.12v5.82c20.89,1.15,54.72,3.15,57.66,3.4,18.42,1.57,116.69,2.07,132.63.6l53.62-2.4,110.52-7.52c24.33-2.54,102.63-3.18,123.7-1.5,5.8.46,66.15,4.52,86.75,5.87v-6.2c-37.65-3.5-117.33-11.19-153.06-8.69-10.09.7-20.62.1-31.05,1.2-27.32,2.9-76.84,5.42-107.23,8.42-11.11,1.09-85.49,5.56-86.54,5.71-12.64,1.79-104.54,1.07-120.41-.3-11.29-1-23.11-1.35-34.33-1.8l-32.26-2.61Zm0,8.16c26.34,1.23,75.8,3.57,78.35,3.77,21.08,1.57,146.72.51,171.67-3,20.22-.9,38.22-1.75,54.39-2.54,128.41-6.26,140.11-8.78,213.7-3.17,10.54.8,33.28,3,46.77,3.68v5l-64.17-3.26-37.16-.9c-26.75-2.16-121.63,1.11-148.62,3.3-31.57,2.57-115.62,3.3-137.34,5.11-8.15,1.14-18.3-.74-25.87.3-21.42,1.4-109.16-1.7-151.72-3.48v-4.79Zm0,7c14.24.54,32.79,1.32,36.49,1.57,21.74,1.51,55.36-.29,75.72,1.21,11.48.84,122.18-.42,136.4-1.51,20-1.52,112.48-3.29,123.23-4.81,12-1.69,106.72-.27,125.57,0,20,.3,46.75,2.59,67.47,3v3.12L1066,192c-8.72-.19-53.08,0-57.38-.6-11.48-1.58-166.05,3-172.61,3.91-12,1.66-50.87.18-65.85,1.2-38,2.6-150.58-.05-206.75-1.63v-3.25Zm0,7.28v3.41c54.82.51,194.32,2.89,216.16,1.41,19.11-1.3,104.77.1,114.29-1.21,16.39-2.25,196.88-.71,234.43-.36v-3.61c-34.54-.48-171-3.31-184.58-1.44-7.32,1-95.71,1.51-116.17,2.71-12.16.71-97,.9-113.82.9-51.28,0-101.19-.92-150.31-1.81Zm0,6.07c36.36.24,74,1.15,112.21,1.15,54.89,0,109.07.2,164,0,72.26-.28,168.24-1.13,181.71-2.09,11.13-.8,80.76.61,107,.86v1.24c-42,0-82.89-.26-126.73.3-10.46.14-69,.45-75.25.9-7.64.56-42.56.68-88.36.57-91.93-.21-227.68-1.32-274.54-1.67v-1.25Zm0,7.8c63.1.16,290.26.86,300.82,2.37,7.2,1,94.6-.28,98.77-.6,5.37-.41,117.85-1.4,119-1.51,12.54-1.16,30.68-.54,46.3-.35v2.46c-27.72,0-89.79-.18-112.15,1.5-8.14.62-167.65,2.69-180.6.9C819.45,215.3,622,215.1,563.4,215.1v-2.36Zm0,10.43c40.15-.2,124.1-.76,149.37,1,11.28.77,57.23.61,75.72,2.1,20.43,1.66,132.19,3.62,162.74,1.2,12.79-1,139-3.73,177-4.15v3.35l-14.79.2c-16.17.12-166.7,4-170.26,4.51-23.29,3.22-191.68-2.17-199.89-3.3-11.3-1.57-108.34-1-113.82-1.81-4.8-.66-43.23-.22-66.12.09v-3.15Zm0,10.09v2.24H732.78c-4.53-.2-8-.39-10.13-.55-14.39-1.14-119.14-3.79-131.69-2.11-4.22.57-16.65.52-27.56.42Zm483.1,2.24h81.78v-2.33c-19.07.17-53.94,1.15-81.78,2.33ZM1128.28,157v-.5c-9.1-.84-18.55-3.06-27.49-3.58l-.47.6c5.21,0,19,1.92,28,3.48Zm0-21.92v-.9c-24-1.7-81.38-7.44-87.69-5,30.91-.22,59.45,4,87.69,5.9Zm0-44.61v-.64c-8.27.07-20.36.28-21.84.87l21.84-.23Zm0-11.48c-12.58.77-25.07,2.39-37.36,2.39.08-.06,24.74-2.45,37.36-3.46V79Zm0-7.7-.68.17c-31.31,7.76-82.12,6.61-115.7,6.61-25.89-1-74-2-93.59-11.42C892.43,54.12,998.8,31.82,1089.5,50.68c8.92,1.85,17.21,2.58,25.4,4.81a104.61,104.61,0,0,1,13.38,4.61V71.25Zm-321-67.37H773.49C739.7,8.46,695.21,10,662.92,7.69c-12.7-.9-24.13-2.36-34.33-3.81H592.17c6.39,1.2,12.63,2.4,16.19,2.91,15.71,2.25,45.49,4.88,62.55,5.71l6.12-.3c3.14.23,1.25,1.14,5.64.3.38-.07,14.59.72,15.05.9a101,101,0,0,0,15-.9l7.06.6c3.75-.08-.92-1.09,5.64-.6,12.85,1,54.27-5.2,67.26-6.31a127.58,127.58,0,0,0,14.5-2.31ZM633.29,11.3a11.16,11.16,0,0,0,3.76-.3c-2.06-.1-4.52-.67-6.12,0a5.77,5.77,0,0,1,2.36.3Zm6.11.6a5.68,5.68,0,0,0-2.35-.3c1.53-.65,4.4-.16,6.11,0a11.14,11.14,0,0,1-3.76.3Zm8.47.6a9.28,9.28,0,0,1,3.29-.3,9.07,9.07,0,0,1-3.29.3Zm6.58.6a5.86,5.86,0,0,0-2.35-.3c1.82-.76,5.06-.07,7.52,0-1,.43-3.44.34-5.17.3Zm5.17.3a7.52,7.52,0,0,1,2.83-.3,7.52,7.52,0,0,1-2.83.3Zm17.88.9-14.58-.9c2-.85,14.08.3,17.4.3V14a11.74,11.74,0,0,1-2.82.3ZM991.21,28.43c2.18-.89,14.19-.34,17.87-.3-2.18.89-14.2.34-17.87.3Zm37.62.6a3.44,3.44,0,0,1,1.41-.3,3.06,3.06,0,0,1-1.41.3Zm-63.49.61c.48-.25.11-.12.94-.31v.31Zm-14.58,1.2c.48-.24.11-.11.94-.3v.3Zm-8.94.9c.48-.24.12-.11.94-.3v.3Zm-3.29.3a5.86,5.86,0,0,1,2.35-.3,5.86,5.86,0,0,1-2.35.3Zm-7.53.9a4.52,4.52,0,0,1,1.89-.3,4.52,4.52,0,0,1-1.89.3Zm-1.88.3a4.47,4.47,0,0,1,1.88-.3,4.43,4.43,0,0,1-1.88.3Zm-8.93,1.2c1.78-.85,6.08-1.22,8.93-1.2-1.81.84-6.2,1.19-8.93,1.2ZM564.62,43.76a4.43,4.43,0,0,1,1.88-.3,4.17,4.17,0,0,1-1.88.3Zm383.32.3c.48-.24.11-.11.94-.3v.3Zm-381.44,0a3.35,3.35,0,0,1,1.41-.3,3.06,3.06,0,0,1-1.41.3Zm379.08.31a4.33,4.33,0,0,1,1.89-.31,4.33,4.33,0,0,1-1.89.31Zm-56.91.9c.49-.25.12-.11,1-.3,0,.1,0,.2,0,.3Zm-1.41.3c.49-.25.12-.11.94-.3v.3Zm-310.88,0a12.61,12.61,0,0,0-3.77-.6c1.68-.65,3.93.15,6.12.3a5.89,5.89,0,0,1-2.35.3Zm535.7,4.81h.94v-.3c-.82.19-.46.06-.94.3Zm.94.3a3.2,3.2,0,0,0,1.41-.3,3.14,3.14,0,0,0-1.41.3Zm1.88.3a3.06,3.06,0,0,0,1.41-.3,3.14,3.14,0,0,0-1.41.3Zm4.24.9a4.5,4.5,0,0,0,1.88-.3c-1.85-.19-3.25-.84-4.71-.3a6.59,6.59,0,0,1,2.83.6Zm1.88.3a3.14,3.14,0,0,0,1.41-.3,3.06,3.06,0,0,0-1.41.3Zm5.64,1.2a3.06,3.06,0,0,0,1.41-.3h-.94a6.06,6.06,0,0,0-4.7-.6,11.51,11.51,0,0,1,4.23.9Zm-531.94,0h.94v-.3c-.82.19-.46.06-.94.3ZM598,54a3.06,3.06,0,0,0,1.41-.3A3.44,3.44,0,0,0,598,54Zm415.3,9.32c10.17,0,20.44.22,27.28-1.8-1-5.69-29.81-3.71-36.69-3.61a17.27,17.27,0,0,1-3.76,1.81c.16.5.32,1,.47,1.5,3.14.95,9.84,1,12.7,2.1Zm-288.78.3c-2.63-1.06-7.37-.09-10.82-.6-31.19-3.69-63.56-5.55-94.06-11.12-4.78-.87-35.6-5.85-40.92-6,1.91-.71,6.48.17,8.93.6,29.67,5.17,60.83,7,91.25,11.72,22.21,3.43,65.24,3.75,87.48,2.11,35.34-2.62,135.72-25.73,153.8-25.86-1.26.59-46.91,8.2-52.21,9.32C823.51,53.18,785,64.44,724.53,63.6Zm289.72,4.51c-.67-.27-71.22-4.61-24.93-13.52,51.49-9.92,133.56,15,24.93,13.52Zm0,4.51c-1.67-.62-72.54-2.35-65.84-12.92,11.11-17.55,145.71-12.11,149.09,4.2-13.35,9.77-54.32,8.64-83.25,8.72Zm8.94,2.11-32.45-1.21c-11.86-1.06-46-3.56-53.15-9.92-9.05-8.07,24.58-12.71,32.45-14.12,39.43-7.09,139.8,1.11,140.63,15.93-14.51,8.9-59.62,9.55-87.48,9.32ZM1011,75.93c-3.64-1.37-74.62-.59-82.31-12.93.06-11.13,28.18-12.94,43.27-15.33,35.55-5.62,82.69-1.2,112.41,4.51,30.1,5.78,23.9,6.14,29.16,7.52.86.22,7,2.67,7.06,2.7a6.49,6.49,0,0,1-.47,2.71c-5.69,12.57-86.7,10.83-109.12,10.82Zm-64,3c-2.7-1.09-11.39-.62-15-1.21-15.56-2.49-46.63-4.18-45.62-15.63,5.1-7.29,46-17.34,58.79-17.74-3.08,1.55-8.75,1.48-12.69,2.41-13,3-39.31,7.79-39.51,18.34,4.79,8,49.32,13.57,58.32,13.52a13,13,0,0,1-4.24.31Zm4.24.29a10.88,10.88,0,0,0,3.76-.3,11.4,11.4,0,0,0-3.76.3Zm15,1.21h1.88v-.6c-2.36,0-6.87-1-8.94,0,2,0,5.71,0,7.06.6Zm7.05.3v-.6a29.11,29.11,0,0,0,4.24.3,13.36,13.36,0,0,1-4.24.3Zm104.42.9c2.24-1,7.83-.66,11.28-.6-2.24,1-7.77.67-11.28.6ZM922.07,87.35c-2.72-1.1-29.91-1.26-35.75-2.1-17.82-2.57-37.05-2.85-53.61-5.71-18.39-3.18-16.93-.94-27.28-7.52,1.2-9.52,77.52-26.45,81.83-26.45C882,48.28,827.16,58.17,818.59,69c-8.3,10.52,93.5,18.22,109.12,18-1.07.46-3.82.35-5.64.3Zm8,.3a7.52,7.52,0,0,0,2.83-.3,7.52,7.52,0,0,0-2.83.3Zm7.06.3a4.47,4.47,0,0,0,1.88-.3,4.47,4.47,0,0,0-1.88.3Zm84.19,40.58c1.15-.49,4.2-.34,6.11-.3-1.15.5-4.2.35-6.11.3Zm-41.86,0c4.16-.14,22.33.83,25.87-.6-4.49,0-28.37-1-31.52.3,1.82,0,4.57-.16,5.65.3Zm-23.52,0c2.11-.87,8.66-.34,11.76-.3-2.11.88-8.66.35-11.76.3Zm-4.7,0a6,6,0,0,1,2.35-.3,5.68,5.68,0,0,1-2.35.3Zm81.83.3c1.08-.46,3.83-.34,5.65-.3-1.07.47-3.82.35-5.65.3Zm-88.42,19.85c19.86-.53,41.82-2.89,62.09-1.51a93.66,93.66,0,0,0,15,.3c-5.49-2.76-70.39-.08-78.55.3v.6a3.17,3.17,0,0,1,1.41.31Zm58.32,3c2.51,0,7.32.38,8.94-.3-2.5,0-7.31-.38-8.94.3Zm23,.6a9,9,0,0,0,3.29-.3c-2.69-.15-9.32-1-11.76,0,2.41,0,6.92-.35,8.47.3Zm9.88.3a4.31,4.31,0,0,0,1.88-.3,4.43,4.43,0,0,0-1.88.3Zm59.73.6h3.76v-.3h-.47c-10.49-2.19-60.87-6.42-74.78-5.71v.6c6-.07,67,3.47,71.49,5.41Zm-51.74,0h3.77v-.3c-1.55,0-2.75-.8-3.77.3Zm16.93,1.21a7.52,7.52,0,0,0,2.83-.3c-1.93-.09-3.41-.52-4.71,0a4.14,4.14,0,0,1,1.88.3Zm17.41,1.5a4.47,4.47,0,0,0,1.88-.3,4.43,4.43,0,0,0-1.88.3Zm13.64,1.5a7.46,7.46,0,0,0,2.82-.3c-2.67-.22-7.93-1.34-9.88-.6a28.92,28.92,0,0,1,7.06.9Zm6.11.6c.48-.24.12-.11.94-.3v.3Zm6.58.91a5.77,5.77,0,0,1,2.36-.3,6.1,6.1,0,0,1-2.36.3Zm4.24.6a4.31,4.31,0,0,0-1.88-.3v-.3h2.82v.6Zm7.52.9c-.48-.24-.11-.11-.94-.3v-.3c1.3.08,1.44.3,2.35.3a3.06,3.06,0,0,1-1.41.3Zm10.35,1.2a3.14,3.14,0,0,1,1.41-.3,3.06,3.06,0,0,1-1.41.3Zm-363.09,3.61c3.57,0,46.52-3.81,52.67-4.51,14.57-1.66,30.39-3.63,45.16-5.11,4.26-.43,58.93-5.76,60.67-6,7-1,14.14-.37,20.69-1.21C938.87,145.41,815,159.29,805,161c-5.22.89-39.71,2.25-41.39,4.21Zm-23.05,1.5c1.72-1.67,17.56-1.8,22.11-1.8v.3c-6.24,1.37-14.9,1-22.11,1.5Zm-28.22,1.2c-.48-.24-.11-.11-.94-.3,2.43-1,20.14-1.2,24.93-1.2v.3c-5.36,1.18-17.66,1.2-24,1.2Zm-7,0a13.29,13.29,0,0,1,4.23-.3,13,13,0,0,1-4.23.3Zm-14.11.61c-2.54-1-17.86-.37-21.64-.61,3-1.27,26.55-.3,31-.3-1.68.8-6.89.85-9.4.91Zm309,9.61v-.6h1.41v.3l-1.41.3Zm25.4.31v-.61a23.2,23.2,0,0,1,3.29.3v.31Zm8.94.3c-.48-.25-.13-.11-.94-.3v-.31l3.29-.3c.53.47.51.26.94.91Zm9.4.3c.81-.27.61-.27,1.41,0Zm28.69,1.2c.81-.27.6-.27,1.41,0Zm12.23.6h-1.41C1084.2,180.58,1084,180.57,1084.8,180.84Z"/><path class="cls-3" d="M561.94,16.9s75.93,3.89,92.16,3.89,38.53-1.95,62.86-1.95,61.52-1.94,85.18-1.94,63.54-2.43,91.26.48,54.75,5.35,81.79,1.95,48.67-3.89,70.31-3.89,54.07.48,64.89.48h16.68V6l-565.13.64Z"/><path class="cls-4" d="M1076.3,7.05c-6.22-.17-14.4,1-26.22.91l.77-.93c-9.53,1-45,1.55-53.92,3.7-9-.72.94-.2.74-.93-17.49-1-18.7.49-27.87,1-10.77-.47,8.23-.36,2.44-1.06-16.49.71-13.39-1.14-33.77-.53-2,.53,5.26.37,7.36.71-14.34-1-41.06-.37-62.38-.56-24.4.66-60.43.92-88.94,1.76l-.53-.34c-11.85.87-24.7.06-38.56.45l6.77-.5c-9.05-.58-14.13-.21-22.69-.46l-4.77,1c-9.27-.32-4.1-.82-10.83-1.33-8.46.62-26.28.05-30.29.09-2.78.45,3.46.62,4.82.9-10.87-.33-10.1-1.26-23.6-1.27l-.23.26c-32.26-1.38-73.15-1-109-1.9a5.77,5.77,0,0,0,2.76-.45l-6.39,0v-5c12.11.33,33.46-.31,46.72.1,6.22.07,14.4-.47,26.22-.41l-.77.41c9.53-.42,45-.69,53.93-1.65,9,.32-.95.08-.75.41,17.49.44,18.7-.22,27.87-.46,10.77.2-8.23.16-2.45.47,16.5-.32,13.4.51,33.78.24,2-.24-5.26-.17-7.36-.32,14.32.42,41,.17,62.31.25-5-.18-9.52-.32-12.15-.51l18.76.38C806.92.89,820.74.5,810.84,0c18.69-.5,41.28.1,59.21.54-2.22.16-5,.27-5.3.52L873.07,1c.76-.18,1-.39,1.85-.56a34.7,34.7,0,0,1,4.57.49l11-.13.53.15C902.27.55,914.46.86,927.55.74h2L928.1.77c-1.17.08-2.34.15-3.1.23,3.3.08,6.1.1,8.82.11a43.91,43.91,0,0,1,7.49-.18L935-.11c6.34,0,15.63.36,12.37-.53C958.43.43,977.86,0,991.68.62l-.91-.8c7.14,1,26.28-.05,32.48,1.12l1-.33,14.11,1.07h.36c6.14-.13,4-1.3,4.54-1,14.14.21,25.23.28,34.32-.14,2,1,13.61,1.28,24.41,1.45l6.12,0q9.39-.1,18.91-.15V7.64C1116.33,6.14,1091.2,8.08,1076.3,7.05Z"/><path class="cls-3" d="M561.94,211.45h40.78c13.52,0,36.5-4.37,48.67-4.37s36.5,2.92,36.5,2.92,12.17.48,22.31.48,16.23-1,23-1,35.82,1.94,42.58,1.94H931.93c13.52,0,15.55-1.45,34.47-1.45s30.42,3.4,51.38,1,42.59-2.43,62.19.48,47.1,0,47.1,0v8.27l-563.58,1.22Z"/><path class="cls-4" d="M1076.3,225.28c-6.22-.2-14.4,1.22-26.22,1.07l.77-1.09c-9.53,1.11-45,1.8-53.92,4.31-9-.84.94-.23.74-1.09-17.49-1.12-18.7.58-27.87,1.22-10.77-.54,8.23-.41,2.44-1.23-16.49.82-13.39-1.34-33.77-.62-2,.61,5.26.43,7.36.83-14.34-1.11-41.06-.43-62.38-.65-24.4.76-60.43,1.07-88.94,2l-.53-.39c-11.85,1-24.7.07-38.56.52l6.77-.58c-9.05-.68-14.13-.25-22.69-.54l-4.77,1.13c-9.27-.37-4.1-1-10.83-1.55-8.46.72-26.28.06-30.29.11-2.78.53,3.46.72,4.82,1-10.87-.38-10.1-1.46-23.6-1.48l-.23.31c-32.26-1.61-73.15-1.19-109-2.21a5.1,5.1,0,0,0,2.76-.53l-6.39-.06V220c12.11.38,33.46-.37,46.72.11,6.22.09,14.4-.55,26.22-.48l-.77.49c9.53-.5,45-.81,53.93-1.94,9,.38-.95.11-.75.49,17.49.51,18.7-.26,27.87-.54,10.77.24-8.23.18-2.45.55,16.5-.37,13.4.6,33.78.28,2-.28-5.26-.2-7.36-.38,14.32.5,41,.2,62.31.3-5-.21-9.52-.38-12.15-.59l18.76.43c-1.13-.63,12.69-1.08,2.79-1.69,18.69-.57,41.28.12,59.21.63-2.22.19-5,.32-5.3.61l8.32-.09c.76-.2,1-.45,1.85-.64a29.16,29.16,0,0,1,4.57.57l11-.15.53.17c11.29-.43,23.48-.07,36.57-.21l1.2,0h.79l-1.44.06c-1.17.09-2.34.17-3.1.27,3.3.09,6.1.11,8.82.12a37.68,37.68,0,0,1,7.49-.21L935,216.93c6.34,0,15.63.42,12.37-.61,11.06,1.24,30.49.75,44.31,1.46l-.91-.94c7.14,1.14,26.28-.05,32.48,1.31l1-.38,14.11,1.25h.36c6.14-.14,4-1.51,4.54-1.12,14.14.25,25.23.32,34.32-.16,2,1.1,13.61,1.49,24.41,1.68l6.12.05q9.39-.12,18.91-.17V226C1116.33,224.22,1091.2,226.48,1076.3,225.28Z"/><path class="cls-4" d="M790,195.4s18.93-3.4,33.8-3.4,50,6.32,50,6.32S838,195.4,819.72,195.4,780.14,196.91,790,195.4Z"/></svg>